<svg xmlns="http://www.w3.org/2000/svg" width="240" height="94" viewBox="0 0 240 94">
    <path fill="#333" fill-rule="nonzero" d="M95.304 17.988c0 3.477.067 3.976 1.99 4.14l1.06.101c.196.133.133.73-.068.827-1.886-.066-3.014-.098-4.34-.098-1.327 0-2.486.034-4.606.098-.199-.098-.266-.663 0-.827l1.193-.1c1.89-.165 2.055-.664 2.055-4.141V3.176c0-1.026 0-1.06-.995-1.06h-1.822c-1.424 0-3.247.066-4.075.828-.796.729-1.127 1.456-1.49 2.286-.264.2-.73.033-.862-.232.53-1.49 1.027-3.61 1.26-4.936.1-.067.53-.097.63 0 .198 1.06 1.291 1.027 2.816 1.027h13.42c1.787 0 2.087-.067 2.583-.927.167-.067.53-.034.598.099-.366 1.358-.598 4.042-.498 5.037-.132.264-.696.264-.86.065-.1-.827-.33-2.053-.83-2.417-.762-.564-2.018-.828-3.84-.828H96.27c-.995 0-.962.033-.962 1.126v14.744h-.003zm21.154-5.732c-1.59 0-1.657.068-1.657 1.06v4.672c0 3.479.166 3.944 2.021 4.142l.961.1c.197.132.133.728-.067.827-1.787-.067-2.917-.1-4.208-.1-1.424 0-2.55.067-3.84.1-.2-.1-.267-.63-.069-.828l.564-.099c1.857-.332 1.92-.664 1.92-4.142V6.059c0-3.476-.23-4.04-1.954-4.173l-.86-.066c-.2-.132-.132-.729.066-.829 1.624.034 2.75.1 4.175.1 1.29 0 2.42-.034 3.844-.1.2.1.266.697.068.83l-.632.065c-1.92.2-1.988.696-1.988 4.174v3.81c0 1.028.068 1.062 1.658 1.062h9.477c1.589 0 1.656-.034 1.656-1.061V6.06c0-3.478-.067-3.975-2.02-4.175l-.63-.066c-.197-.132-.133-.729.067-.829a87.04 87.04 0 0 0 4.008.1c1.29 0 2.418-.034 3.908-.1.2.1.266.697.067.83l-.696.065c-1.922.2-1.99.696-1.99 4.174v11.928c0 3.479.068 3.908 1.99 4.142l.796.1c.2.132.131.728-.066.827a89.447 89.447 0 0 0-4.01-.1c-1.356 0-2.55.033-4.007.1-.2-.1-.264-.63-.068-.828l.63-.099c2.022-.332 2.022-.664 2.022-4.142v-4.672c0-.992-.068-1.06-1.656-1.06h-9.48zm24.935-6.196c0-3.448-.068-3.944-2.022-4.174l-.532-.068c-.196-.131-.13-.728.068-.827 1.424.066 2.55.1 3.91.1h6.23c2.119 0 4.075 0 4.472-.1.197.563.397 2.948.528 4.406-.13.2-.66.266-.827.067-.497-1.559-.796-2.718-2.519-3.15-.697-.163-1.757-.196-3.213-.196h-2.385c-.996 0-.996.065-.996 1.325v6.625c0 .928.102.928 1.095.928h1.92c1.392 0 2.42-.066 2.818-.197.397-.134.63-.334.796-1.16l.267-1.36c.163-.197.726-.197.86.033 0 .795-.131 2.088-.131 3.344 0 1.194.13 2.453.13 3.182-.13.232-.695.232-.86.034l-.3-1.292c-.132-.596-.362-1.093-1.026-1.26-.464-.133-1.259-.167-2.552-.167h-1.92c-.993 0-1.095.034-1.095.896v4.67c0 1.758.102 2.885.632 3.446.395.398 1.092.763 4.009.763 2.55 0 3.512-.131 4.242-.496.596-.334 1.49-1.491 2.353-3.215.23-.164.697-.066.828.232-.232 1.161-1.061 3.712-1.493 4.605-2.98-.065-5.928-.099-8.879-.099h-2.98c-1.425 0-2.551.034-4.507.1-.199-.1-.267-.63-.067-.827l1.094-.101c1.886-.163 2.054-.664 2.054-4.14V6.06h-.002zM7.31 47.052c-1.59 0-1.656.066-1.656 1.061v4.672c0 3.479.163 3.941 2.019 4.142l.962.098c.196.132.132.728-.068.83-1.788-.068-2.914-.102-4.208-.102-1.424 0-2.55.068-3.841.101-.2-.1-.266-.63-.067-.83l.564-.097c1.856-.334 1.92-.664 1.92-4.142V40.856c0-3.477-.23-4.04-1.954-4.174l-.86-.065c-.2-.133-.134-.73.066-.828 1.624.034 2.75.098 4.174.098 1.294 0 2.42-.034 3.844-.098.2.098.266.697.067.828l-.631.066c-1.92.2-1.986.696-1.986 4.174v3.811c0 1.027.066 1.06 1.656 1.06h9.477c1.59 0 1.656-.033 1.656-1.06v-3.81c0-3.479-.067-3.975-2.02-4.175l-.63-.066c-.198-.133-.134-.73.066-.828a87.03 87.03 0 0 0 4.008.098c1.293 0 2.421-.034 3.91-.098.2.098.266.697.068.828l-.697.066c-1.92.2-1.988.696-1.988 4.174v11.928c0 3.48.067 3.91 1.988 4.143l.795.097c.2.133.132.728-.066.83a89.458 89.458 0 0 0-4.011-.1c-1.357 0-2.55.033-4.008.1-.2-.1-.266-.63-.067-.83l.632-.097c2.019-.334 2.019-.664 2.019-4.143v-4.672c0-.994-.067-1.06-1.656-1.06H7.31zm40.652-2.85c0-2.053-.068-5.863-.63-6.859-.231-.396-.83-.63-1.655-.695l-.83-.067c-.2-.232-.132-.663.066-.794 1.259.067 2.518.1 3.778.1 1.394 0 2.287-.033 3.48-.1.265.164.231.597.065.794l-.794.067c-.827.066-1.456.364-1.656.797-.464 1.092-.464 4.9-.464 6.758v3.745c0 2.884-.464 5.93-2.32 7.918-1.425 1.557-3.876 2.42-6.329 2.42-2.288 0-4.57-.432-6.196-1.824-1.757-1.457-2.584-3.878-2.584-7.82v-7.82c0-3.445-.067-4.007-1.987-4.174l-.829-.067c-.2-.133-.133-.695.068-.794 1.656.067 2.782.1 4.107.1 1.36 0 2.454-.033 4.075-.1.2.1.264.663.067.794l-.794.067c-1.923.167-1.988.729-1.988 4.175v7.156c0 5.336 1.656 8.846 6.726 8.846 4.804 0 6.626-3.776 6.626-8.813v-3.81h-.002zm14.456 1.028c0 .894.099.894 1.094.894h2.254c1.357 0 2.417-.066 2.814-.197.363-.133.63-.3.828-1.162l.3-1.325c.163-.198.728-.198.86 0 0 .795-.133 2.121-.133 3.347 0 1.193.133 2.45.133 3.215-.133.197-.63.197-.86 0l-.333-1.294c-.167-.596-.432-1.061-1.06-1.258-.464-.133-1.292-.166-2.55-.166H63.51c-.996 0-1.095.033-1.095.895v4.604c0 3.48.067 3.976 2.022 4.142l1.126.1c.2.13.133.727-.065.828-1.958-.068-3.083-.101-4.41-.101-1.457 0-2.583.033-4.14.1-.2-.1-.266-.629-.067-.827l.828-.1c1.92-.234 1.988-.664 1.988-4.142V40.855c0-3.478-.068-3.944-1.988-4.175l-.53-.065c-.198-.133-.134-.73.065-.828 1.394.065 2.518.097 3.845.097h6.096c2.121 0 4.042 0 4.474-.097 0 1.523.032 3.114.1 4.374-.1.198-.564.296-.795.098-.266-1.492-.663-2.716-2.32-3.148-.73-.2-1.822-.2-3.214-.2h-2.02c-.995 0-.995.068-.995 1.327v6.992h.002zm19.908 0c0 .894.1.894 1.094.894h2.254c1.356 0 2.417-.066 2.816-.197.363-.133.63-.3.83-1.162l.297-1.325c.163-.198.729-.198.861 0 0 .795-.134 2.121-.134 3.347 0 1.193.134 2.45.134 3.215-.134.197-.63.197-.86 0l-.334-1.294c-.167-.596-.43-1.061-1.06-1.258-.463-.133-1.292-.166-2.55-.166H83.42c-.995 0-1.094.033-1.094.895v4.604c0 3.48.067 3.976 2.022 4.142l1.125.1c.2.13.133.727-.065.828-1.958-.068-3.082-.101-4.408-.101-1.458 0-2.585.033-4.141.1-.2-.1-.267-.629-.068-.827l.83-.1c1.92-.234 1.988-.664 1.988-4.142V40.855c0-3.478-.067-3.944-1.988-4.175l-.53-.065c-.199-.133-.133-.73.065-.828 1.394.065 2.519.097 3.845.097H87.1c2.12 0 4.04 0 4.472-.097 0 1.523.032 3.114.099 4.374-.1.198-.564.296-.796.098-.266-1.492-.663-2.716-2.32-3.148-.73-.2-1.824-.2-3.215-.2H83.32c-.993 0-.993.068-.993 1.327v6.992zm17.364-4.308c0-3.511-.067-4.075-2.021-4.242l-.828-.065c-.2-.132-.132-.728.065-.828 1.658.067 2.784.099 4.175.099 1.324 0 2.452-.032 4.108-.1.2.1.264.697.066.829l-.826.065c-1.955.165-2.022.73-2.022 4.242v11.797c0 3.511.067 3.976 2.022 4.208l.826.098c.2.132.134.73-.066.828a94.587 94.587 0 0 0-4.108-.098c-1.39 0-2.517.032-4.175.098-.197-.098-.264-.63-.065-.828l.828-.098c1.954-.234 2.021-.697 2.021-4.208V40.92zm31.748 11.2c0 .995 0 4.936.099 5.8-.066.196-.266.363-.63.363-.396-.564-1.36-1.724-4.241-5.003l-7.686-8.746c-.894-1.027-3.147-3.745-3.844-4.474h-.066c-.133.397-.167 1.16-.167 2.154v7.224c0 1.556.034 5.864.596 6.857.2.367.862.564 1.692.63l1.027.1c.196.266.166.664-.068.829a84.948 84.948 0 0 0-3.876-.1c-1.394 0-2.288.034-3.448.1-.23-.163-.265-.63-.065-.828l.893-.101c.764-.1 1.292-.296 1.459-.664.462-1.19.429-5.232.429-6.824v-9.576c0-.926-.034-1.623-.728-2.386-.464-.464-1.259-.696-2.053-.794l-.564-.068c-.2-.196-.2-.695.065-.826 1.395.1 3.148.1 3.746.1.53 0 1.094-.034 1.523-.1.664 1.688 4.572 6.063 5.666 7.288l3.213 3.613c2.288 2.55 3.913 4.405 5.47 5.996h.065c.131-.165.131-.697.131-1.394v-7.09c0-1.558-.033-5.865-.663-6.859-.197-.297-.727-.496-2.054-.663l-.564-.067c-.23-.197-.197-.728.067-.826 1.525.065 2.652.099 3.91.099 1.427 0 2.289-.034 3.415-.1.264.164.264.63.067.827l-.464.067c-1.061.167-1.724.43-1.857.697-.564 1.19-.496 5.3-.496 6.824v7.922zm26.878 2.253c0 1.325.2 2.12.795 2.353a.275.275 0 0 1-.034.397c-.397 0-.992.132-1.623.296-1.754.467-4.14.864-5.931.864-3.941 0-7.555-1.092-10.107-3.678-1.986-1.988-3.046-4.605-3.046-7.523 0-2.816.927-5.664 2.98-7.852 2.22-2.32 5.502-3.877 10.505-3.877 1.89 0 3.643.364 4.208.497.627.133 1.654.364 2.053.298 0 1.094.2 2.818.498 4.804-.1.264-.697.298-.896.101-.926-3.579-3.413-4.706-6.792-4.706-6.427 0-9.246 4.575-9.246 9.544 0 6.36 3.28 11.364 9.942 11.364 2.054 0 3.28-.432 3.644-.995.163-.232.332-.829.332-1.887v-1.326c0-2.785-.102-2.981-2.155-3.216l-1.46-.163c-.263-.133-.23-.73 0-.828.964.067 2.785.098 4.74.098 1.292 0 2.418-.032 3.511-.098.234.131.266.63.033.828l-.53.066c-1.394.167-1.425 1.094-1.425 2.784v1.855h.004zm17.521-1.59c0 3.477.068 3.976 1.99 4.14l1.06.101c.197.133.131.728-.067.828-1.887-.065-3.013-.099-4.34-.099-1.324 0-2.484.034-4.607.1-.198-.1-.264-.664 0-.829l1.196-.1c1.886-.165 2.053-.665 2.053-4.141V37.973c0-1.026 0-1.06-.993-1.06h-1.823c-1.425 0-3.247.066-4.077.828-.794.728-1.124 1.46-1.49 2.286-.266.2-.728.033-.862-.23.534-1.49 1.03-3.611 1.261-4.937.1-.066.53-.098.63 0 .198 1.06 1.293 1.027 2.817 1.027h13.418c1.789 0 2.087-.067 2.584-.928.165-.066.53-.032.597.1-.366 1.36-.598 4.042-.5 5.036-.13.267-.693.267-.86.066-.1-.828-.33-2.054-.828-2.418-.762-.564-2.02-.828-3.842-.828H176.8c-.992 0-.962.033-.962 1.125v14.745h-.002zm12.798-5.733c0-6.625 4.968-11.696 11.796-11.696 7.654 0 11.495 5.532 11.495 11.367 0 6.691-5.1 11.562-11.495 11.562-7.357-.001-11.796-5.268-11.796-11.232zm19.98.696c0-5.468-2.42-11.365-8.748-11.365-3.445 0-7.918 2.352-7.918 9.608 0 4.904 2.386 11.266 8.913 11.266 3.973 0 7.753-2.981 7.753-9.51zm28.429 4.375c0 .994 0 4.935.097 5.798-.065.197-.266.364-.63.364-.397-.564-1.358-1.724-4.24-5.003l-7.685-8.745c-.896-1.027-3.148-3.746-3.845-4.474h-.065c-.133.397-.167 1.16-.167 2.154v7.223c0 1.557.034 5.865.596 6.858.2.367.863.564 1.691.63l1.028.1c.198.266.163.664-.068.829a84.938 84.938 0 0 0-3.875-.1c-1.393 0-2.288.034-3.448.1-.23-.164-.265-.63-.065-.828l.894-.101c.762-.1 1.291-.296 1.46-.664.462-1.19.429-5.232.429-6.824v-9.577c0-.926-.032-1.623-.729-2.386-.465-.464-1.26-.696-2.054-.794l-.564-.068c-.198-.196-.198-.695.066-.826 1.394.1 3.148.1 3.746.1.53 0 1.093-.034 1.523-.1.663 1.688 4.571 6.063 5.666 7.288l3.215 3.613c2.284 2.55 3.91 4.405 5.465 5.996h.065c.134-.165.134-.697.134-1.394v-7.09c0-1.558-.032-5.865-.664-6.859-.199-.297-.728-.496-2.053-.663l-.564-.067c-.23-.197-.197-.728.067-.826 1.523.065 2.65.099 3.91.099 1.425 0 2.285-.034 3.413-.1.264.164.264.63.067.827l-.467.067c-1.06.167-1.724.43-1.855.697-.563 1.19-.496 5.3-.496 6.824v7.922h.002zM82.105 87.58c0 3.477.067 3.91 2.187 4.14l.897.102c.197.165.133.727-.068.826-1.89-.065-2.98-.099-4.307-.099-1.39 0-2.584.034-4.042.1-.2-.1-.264-.63-.067-.827l.697-.102c1.92-.262 1.988-.663 1.988-4.14V75.354c0-2.815-.067-3.379-1.557-3.545l-1.194-.132c-.233-.2-.2-.696.066-.828 1.758-.234 3.811-.264 6.562-.264 2.75 0 4.805.363 6.362 1.323 1.523.961 2.651 2.685 2.651 4.972 0 3.047-1.888 4.572-3.314 5.27-1.458.694-3.215.992-4.572.992-.234-.1-.234-.598-.034-.663 3.58-.663 4.872-2.685 4.872-5.567 0-3.213-1.89-5.3-5.336-5.3-1.754 0-1.788.133-1.788 1.193v14.776h-.003zm14.924-5.733c0-6.625 4.97-11.697 11.796-11.697 7.656 0 11.497 5.532 11.497 11.365 0 6.69-5.102 11.562-11.497 11.562-7.356.002-11.796-5.265-11.796-11.23zm19.98.696c0-5.469-2.42-11.366-8.75-11.366-3.443 0-7.918 2.354-7.918 9.609 0 4.905 2.386 11.264 8.913 11.264 3.976.002 7.755-2.978 7.755-9.507zM131.25 93.08c-2.784 0-4.54-.862-5.17-1.227-.398-.728-.827-3.08-.895-4.637.165-.23.664-.299.795-.098.496 1.688 1.855 4.935 5.7 4.935 2.782 0 4.14-1.821 4.14-3.81 0-1.46-.298-3.083-2.717-4.641l-3.147-2.054c-1.658-1.094-3.58-2.983-3.58-5.698 0-3.149 2.45-5.7 6.76-5.7 1.028 0 2.222.197 3.08.432.433.13.897.197 1.16.197.3.794.6 2.65.6 4.041-.133.2-.663.3-.83.101-.43-1.59-1.324-3.746-4.505-3.746-3.247 0-3.944 2.156-3.944 3.679 0 1.92 1.59 3.314 2.817 4.075l2.652 1.656c2.087 1.291 4.14 3.215 4.14 6.363 0 3.648-2.75 6.132-7.056 6.132zm23.54-5.5c0 3.478.068 3.977 1.989 4.141l1.06.102c.196.131.132.727-.066.826-1.888-.065-3.016-.099-4.342-.099-1.324 0-2.485.034-4.606.1-.198-.1-.264-.662 0-.827l1.192-.102c1.89-.163 2.055-.663 2.055-4.14V72.77c0-1.027 0-1.061-.995-1.061h-1.82c-1.425 0-3.248.066-4.076.829-.795.727-1.127 1.457-1.491 2.284-.264.2-.73.033-.863-.23.532-1.491 1.027-3.612 1.261-4.937.1-.067.53-.099.63 0 .197 1.061 1.29 1.028 2.814 1.028h13.421c1.79 0 2.087-.068 2.585-.928.164-.068.53-.033.596.098-.363 1.36-.596 4.04-.496 5.038-.134.264-.697.264-.862.065-.098-.826-.33-2.053-.827-2.417-.764-.564-2.022-.828-3.844-.828h-2.354c-.994 0-.96.034-.96 1.128V87.58z"/>
</svg>
