<svg xmlns="http://www.w3.org/2000/svg" xmlns:xlink="http://www.w3.org/1999/xlink" width="240" height="34" viewBox="0 0 240 34">
    <defs>
        <path id="a" d="M0 .084h240v33.81H0z"/>
    </defs>
    <g fill="none" fill-rule="evenodd">
        <path fill="#333" d="M90.687 13.66v14.89h-5.612V13.66h-5.67V8.923h16.952v4.739h-5.67M102.1 17.071c-1.158 0-1.807.776-1.977 2.218h4.236c-.255-1.47-.764-2.218-2.26-2.218zm6.719 5.324h-8.696c.17 1.608 1.13 2.328 2.513 2.328 1.298 0 2.372-.277 3.84-1.025l1.947 3.189c-1.834 1.053-3.727 1.663-6.04 1.663-4.462 0-6.918-3.106-6.918-7.57 0-5.018 2.879-7.597 6.775-7.597 4.066 0 6.608 2.634 6.608 8.04 0 .417 0 .722-.03.972zM117.356 28.55c-4.209 0-6.724-2.716-6.724-7.625 0-4.464 2.242-7.542 6.833-7.542 2.706 0 4.265 1.275 5.521 3.327l-3.389 2.607c-.683-1.276-1.149-1.886-2.213-1.886-1.259 0-1.887 1.276-1.887 3.577 0 2.302.683 3.493 2.023 3.493.928 0 1.585-.526 2.487-1.885l3.116 2.468c-1.667 2.496-3.225 3.466-5.767 3.466M135.049 28.55v-8.389c0-1.914-.639-2.42-1.666-2.42-1.056 0-1.694.506-1.694 2.364v8.445h-4.998V10.056l4.998-2.026v6.727c.916-.704 1.943-1.295 3.665-1.295 3.193 0 4.72 2.167 4.72 6.052v9.036h-5.025M152.508 28.55c-5.78 0-8.865-4.377-8.865-10.26 0-6.395 3.668-10.26 8.893-10.26 4.78 0 6.67 2.103 8.003 5.855l-4.89 1.96c-.696-1.847-1.362-3.012-3.14-3.012-2.251 0-3.224 2.302-3.224 5.457 0 3.041.944 5.457 3.279 5.457 1.694 0 2.417-.938 3.473-2.814l4.558 2.473c-1.306 2.615-3.475 5.144-8.087 5.144M173.677 19.297c-.653-.708-1.392-1.245-2.385-1.245-1.251 0-2.018.594-2.018 2.405v8.093h-5.11V13.694h5.11v1.075c.88-.849 1.875-1.386 3.183-1.386 1.078 0 1.816.254 2.413.622l-1.193 5.292M185.01 28.24v-.992c-.887.707-1.943 1.302-3.636 1.302-3.193 0-4.72-2.178-4.72-6.085v-9.082h5.025v8.433c0 1.923.639 2.433 1.667 2.433s1.665-.51 1.665-2.378v-8.488h5.026v14.856h-5.026M202.855 28.55v-8.433c0-1.924-.638-2.433-1.665-2.433-1.055 0-1.694.509-1.694 2.376v8.49h-4.998V13.694h4.998v.99c.916-.707 1.944-1.301 3.664-1.301 3.193 0 4.721 2.178 4.721 6.083v9.084h-5.026M217.28 28.55c-4.208 0-6.722-2.716-6.722-7.625 0-4.464 2.242-7.542 6.834-7.542 2.705 0 4.264 1.275 5.52 3.327l-3.389 2.607c-.683-1.276-1.148-1.886-2.213-1.886-1.26 0-1.888 1.276-1.888 3.577 0 2.302.683 3.493 2.024 3.493.929 0 1.585-.526 2.486-1.885l3.116 2.468c-1.666 2.496-3.225 3.466-5.767 3.466M45.502 11.599h22.305V0H45.502z"/>
        <g>
            <mask id="b" fill="#fff">
                <use xlink:href="#a"/>
            </mask>
            <path fill="#333" d="M234.894 28.267v-8.401c0-1.917-.65-2.424-1.692-2.424-1.074 0-1.722.507-1.722 2.367v8.458h-5.078V9.747l5.078-2.03v6.737c.93-.705 1.975-1.297 3.723-1.297 3.244 0 4.797 2.17 4.797 6.06v9.05h-5.106M0 .084v11.273h11.281v22.546h11.282V11.357h11.28V.084H0M45.125 22.63V11.357H33.844v22.546h33.844V22.63H45.125" mask="url(#b)"/>
        </g>
    </g>
</svg>
